<svg width="42" height="28" viewBox="0 0 42 28" fill="none" xmlns="http://www.w3.org/2000/svg">
<path d="M21.0002 0.25C11.8335 0.25 4.00516 5.95167 0.833496 14C4.00516 22.0483 11.8335 27.75 21.0002 27.75C30.1668 27.75 37.9952 22.0483 41.1668 14C37.9952 5.95167 30.1668 0.25 21.0002 0.25ZM21.0002 23.1667C15.9402 23.1667 11.8335 19.06 11.8335 14C11.8335 8.94 15.9402 4.83333 21.0002 4.83333C26.0602 4.83333 30.1668 8.94 30.1668 14C30.1668 19.06 26.0602 23.1667 21.0002 23.1667ZM21.0002 8.5C17.9568 8.5 15.5002 10.9567 15.5002 14C15.5002 17.0433 17.9568 19.5 21.0002 19.5C24.0435 19.5 26.5002 17.0433 26.5002 14C26.5002 10.9567 24.0435 8.5 21.0002 8.5Z" fill="#525252"/>
</svg>
