<svg width="286" height="97" viewBox="0 0 286 97" fill="none" xmlns="http://www.w3.org/2000/svg">
<path d="M31.6528 44.5786C34.9233 41.7552 36.7356 37.886 37.0897 32.9712H27.7157C27.5074 35.7528 26.6846 37.8129 25.2472 39.1514C23.8307 40.469 21.6747 41.1278 18.7792 41.1278C15.5712 41.1278 13.2173 39.9879 11.7175 37.7083C10.2385 35.4286 9.49896 31.8209 9.49896 26.8852V23.4343C9.54062 18.7077 10.3322 15.2255 11.8737 12.9877C13.436 10.729 15.7795 9.59961 18.9042 9.59961C21.7789 9.59961 23.9141 10.2689 25.3097 11.6074C26.7262 12.925 27.5491 15.0582 27.7782 18.0071H37.1522C36.6522 12.9041 34.7983 8.94081 31.5903 6.1174C28.3823 3.29398 24.1536 1.88228 18.9042 1.88228C15.1129 1.88228 11.78 2.78159 8.90528 4.58021C6.05142 6.35791 3.85375 8.9199 2.31225 12.2662C0.770749 15.6124 0 19.4816 0 23.8735V26.6656C0 33.5464 1.66648 38.9631 4.99945 42.9159C8.35325 46.8478 12.9465 48.8137 18.7792 48.8137C24.1119 48.8137 28.4031 47.402 31.6528 44.5786Z" fill="#18A0FB"/>
<path d="M43.1203 48.1863H52.1818V0H43.1203V48.1863Z" fill="#18A0FB"/>
<path d="M60.1184 14.2426V48.1863H69.1799V14.2426H60.1184Z" fill="#18A0FB"/>
<path d="M60.9308 2.10188C60.0351 2.98027 59.5872 4.09918 59.5872 5.4586C59.5872 6.83894 60.0455 7.96831 60.9621 8.8467C61.8995 9.7251 63.1285 10.1643 64.6492 10.1643C66.1699 10.1643 67.3885 9.7251 68.305 8.8467C69.2424 7.96831 69.7111 6.83894 69.7111 5.4586C69.7111 4.09918 69.2528 2.98027 68.3363 2.10188C67.4197 1.22348 66.1907 0.784282 64.6492 0.784282C63.0869 0.784282 61.8474 1.22348 60.9308 2.10188Z" fill="#18A0FB"/>
<path d="M94.7709 40.1239C93.7293 41.0441 92.3753 41.5042 90.7088 41.5042C88.5424 41.5042 86.928 40.7408 85.8656 39.2141C84.8032 37.6874 84.272 35.1777 84.272 31.685V30.7439C84.272 27.293 84.8032 24.8042 85.8656 23.2775C86.9488 21.7298 88.5424 20.956 90.6463 20.956C92.3545 20.956 93.7293 21.5102 94.7709 22.6187C95.8124 23.7062 96.3541 25.1284 96.3957 26.8852H104.864C104.822 22.8697 103.52 19.6593 100.958 17.2542C98.4163 14.8282 95.0313 13.6151 90.8026 13.6151C85.9698 13.6151 82.1681 15.1732 79.3976 18.2895C76.627 21.4057 75.2418 25.5781 75.2418 30.8066V31.4027C75.2418 36.8403 76.6375 41.1068 79.4288 44.2021C82.2202 47.2765 86.0323 48.8137 90.8651 48.8137C93.4481 48.8137 95.802 48.2909 97.9268 47.2451C100.072 46.1785 101.76 44.6936 102.989 42.7904C104.218 40.8663 104.843 38.754 104.864 36.4534H96.3957C96.3541 37.9802 95.8124 39.2036 94.7709 40.1239Z" fill="#18A0FB"/>
<path d="M119.049 37.8338L122.299 34.5712L130.986 48.1863H141.36L128.08 28.391L140.297 14.2426H129.455L120.799 24.4382L119.049 26.697V0H110.019V48.1863H119.049V37.8338Z" fill="#18A0FB"/>
<path d="M31.6528 92.7649C34.9233 89.9415 36.7356 86.0723 37.0897 81.1575H27.7157C27.5074 83.9391 26.6846 85.9991 25.2472 87.3376C23.8307 88.6552 21.6747 89.314 18.7792 89.314C15.5712 89.314 13.2173 88.1742 11.7175 85.8946C10.2385 83.6149 9.49896 80.0072 9.49896 75.0715V71.6206C9.54062 66.894 10.3322 63.4118 11.8737 61.174C13.436 58.9153 15.7795 57.7859 18.9042 57.7859C21.7789 57.7859 23.9141 58.4552 25.3097 59.7937C26.7262 61.1113 27.5491 63.2445 27.7782 66.1934H37.1522C36.6522 61.0903 34.7983 57.1271 31.5903 54.3037C28.3823 51.4803 24.1536 50.0686 18.9042 50.0686C15.1129 50.0686 11.78 50.9679 8.90528 52.7665C6.05142 54.5442 3.85375 57.1062 2.31225 60.4525C0.770749 63.7987 0 67.6679 0 72.0598V74.8519C0 81.7326 1.66648 87.1494 4.99945 91.1022C8.35325 95.0341 12.9465 97 18.7792 97C24.1119 97 28.4031 95.5883 31.6528 92.7649Z" fill="#18A0FB"/>
<path fill-rule="evenodd" clip-rule="evenodd" d="M61.337 93.3296C61.5245 94.5426 61.8266 95.5569 62.2432 96.3726H71.3672V95.8393C70.4923 94.187 70.0444 91.7505 70.0236 88.5298V73.8166C70.0236 70.0102 68.7946 67.0613 66.3365 64.9699C63.8993 62.8576 60.5975 61.8014 56.4313 61.8014C53.6816 61.8014 51.2027 62.2825 48.9946 63.2445C46.7866 64.1856 45.0784 65.4928 43.8702 67.1659C42.662 68.839 42.0579 70.6586 42.0579 72.6245H51.0882C51.0882 71.3487 51.5152 70.3449 52.3693 69.6129C53.2442 68.8809 54.442 68.5149 55.9626 68.5149C57.6916 68.5149 58.9519 68.9854 59.7435 69.9266C60.5559 70.8677 60.9621 72.1226 60.9621 73.6911V75.6362H56.8063C51.786 75.6571 47.9427 76.6296 45.2763 78.5537C42.6308 80.4778 41.308 83.2385 41.308 86.8357C41.308 89.7637 42.3912 92.1897 44.5576 94.1138C46.7449 96.0379 49.4946 97 52.8067 97C56.3063 97 59.1498 95.7765 61.337 93.3296ZM58.4624 89.1886C57.3375 89.7741 56.1085 90.0669 54.7753 90.0669C53.4004 90.0669 52.3172 89.7009 51.5256 88.9689C50.734 88.237 50.3382 87.3063 50.3382 86.1769L50.3695 85.6436C50.6611 82.5065 53.0671 80.9379 57.5875 80.9379H60.9621V86.773C60.4205 87.7768 59.5872 88.582 58.4624 89.1886Z" fill="#18A0FB"/>
<path d="M85.7094 66.2248L85.4282 62.4288H76.9603V96.3726H85.9906V72.3735C87.1363 70.2403 88.9903 69.1737 91.5525 69.1737C93.4065 69.1737 94.7188 69.6129 95.4896 70.4913C96.2603 71.3697 96.6457 72.7918 96.6457 74.7578V96.3726H105.676L105.645 73.0637C106.686 70.4704 108.561 69.1737 111.269 69.1737C113.165 69.1737 114.487 69.6233 115.237 70.5226C115.987 71.401 116.362 72.8023 116.362 74.7264V96.3726H125.424V74.695C125.424 70.3867 124.528 67.1659 122.737 65.0327C120.945 62.8785 118.216 61.8014 114.55 61.8014C110.155 61.8014 106.77 63.5268 104.395 66.9777C102.77 63.5268 99.7808 61.8014 95.4271 61.8014C91.3442 61.8014 88.105 63.2759 85.7094 66.2248Z" fill="#18A0FB"/>
<path d="M132.86 62.4288V96.3726H141.922V62.4288H132.86Z" fill="#18A0FB"/>
<path d="M133.673 50.2882C132.777 51.1666 132.329 52.2855 132.329 53.6449C132.329 55.0252 132.788 56.1546 133.704 57.033C134.642 57.9114 135.871 58.3506 137.391 58.3506C138.912 58.3506 140.131 57.9114 141.047 57.033C141.984 56.1546 142.453 55.0252 142.453 53.6449C142.453 52.2855 141.995 51.1666 141.078 50.2882C140.162 49.4098 138.933 48.9706 137.391 48.9706C135.829 48.9706 134.589 49.4098 133.673 50.2882Z" fill="#18A0FB"/>
<path d="M157.983 66.3503L157.702 62.4288H149.202V96.3726H158.233V72.4363C159.503 70.2612 161.409 69.1737 163.951 69.1737C165.888 69.1737 167.273 69.6129 168.107 70.4913C168.94 71.3487 169.356 72.7395 169.356 74.6637V96.3726H178.387V74.444C178.345 70.2403 177.449 67.0823 175.7 64.9699C173.95 62.8576 171.283 61.8014 167.7 61.8014C163.638 61.8014 160.399 63.3177 157.983 66.3503Z" fill="#18A0FB"/>
<path d="M203.103 61.8014C199.478 61.8014 196.468 63.2445 194.073 66.1307V48.1863H185.042V96.3726H194.073V72.2481C195.26 70.1985 197.176 69.1737 199.822 69.1737C201.759 69.1737 203.144 69.6442 203.978 70.5854C204.811 71.5056 205.228 72.9382 205.228 74.8832V96.3726H214.258V74.6323C214.154 66.0784 210.435 61.8014 203.103 61.8014Z" fill="#18A0FB"/>
<path fill-rule="evenodd" clip-rule="evenodd" d="M239.755 93.3296C239.943 94.5426 240.245 95.5569 240.661 96.3726H249.785V95.8393C248.91 94.187 248.462 91.7505 248.442 88.5298V73.8166C248.442 70.0102 247.213 67.0613 244.755 64.9699C242.317 62.8576 239.016 61.8014 234.849 61.8014C232.1 61.8014 229.621 62.2825 227.413 63.2445C225.205 64.1856 223.496 65.4928 222.288 67.1659C221.08 68.839 220.476 70.6586 220.476 72.6245H229.506C229.506 71.3487 229.933 70.3449 230.787 69.6129C231.662 68.8809 232.86 68.5149 234.381 68.5149C236.11 68.5149 237.37 68.9854 238.161 69.9266C238.974 70.8677 239.38 72.1226 239.38 73.6911V75.6362H235.224C230.204 75.6571 226.361 76.6296 223.694 78.5537C221.049 80.4778 219.726 83.2385 219.726 86.8357C219.726 89.7637 220.809 92.1897 222.976 94.1138C225.163 96.0379 227.913 97 231.225 97C234.724 97 237.568 95.7765 239.755 93.3296ZM236.88 89.1886C235.755 89.7741 234.526 90.0669 233.193 90.0669C231.818 90.0669 230.735 89.7009 229.944 88.9689C229.152 88.237 228.756 87.3063 228.756 86.1769L228.788 85.6436C229.079 82.5065 231.485 80.9379 236.005 80.9379H239.38V86.773C238.838 87.7768 238.005 88.582 236.88 89.1886Z" fill="#18A0FB"/>
<path d="M244.505 54.5547C245.879 52.9443 246.567 50.9574 246.567 48.5941L241.349 48.249C241.349 49.2111 241.078 49.9535 240.536 50.4764C240.015 50.9783 239.391 51.2293 238.661 51.2293C238.141 51.2293 237.641 51.1666 237.162 51.0411C236.682 50.9156 235.818 50.5496 234.568 49.9431C233.318 49.3366 232.412 48.9601 231.85 48.8137C231.308 48.6464 230.725 48.5627 230.1 48.5627C228.121 48.5627 226.444 49.3784 225.069 51.0097C223.715 52.641 223.038 54.6174 223.038 56.9389L228.288 57.2526C228.288 56.2905 228.538 55.5481 229.037 55.0252C229.558 54.5024 230.183 54.2409 230.912 54.2409C231.475 54.2409 231.995 54.3141 232.475 54.4605C232.954 54.586 233.735 54.9416 234.818 55.5272C235.901 56.1128 236.745 56.4997 237.349 56.6879C237.974 56.8552 238.682 56.9389 239.474 56.9389C241.453 56.9389 243.13 56.1441 244.505 54.5547Z" fill="#18A0FB"/>
<path fill-rule="evenodd" clip-rule="evenodd" d="M255.91 70.0834C254.618 72.7186 253.972 75.7198 253.972 79.087V79.4948C253.972 84.8907 255.42 89.1572 258.316 92.2943C261.232 95.4314 265.127 97 270.002 97C274.876 97 278.761 95.4314 281.657 92.2943C284.552 89.1363 286 84.9534 286 79.7458L285.938 77.4243C285.604 72.6141 283.99 68.8077 281.094 66.0052C278.22 63.2027 274.501 61.8014 269.939 61.8014C266.731 61.8014 263.909 62.523 261.471 63.966C259.055 65.4091 257.201 67.4482 255.91 70.0834ZM264.815 87.1494C263.607 85.4344 263.003 82.9666 263.003 79.7458C263.003 76.1276 263.607 73.4611 264.815 71.7461C266.023 70.0102 267.731 69.1423 269.939 69.1423C272.168 69.1423 273.897 70.0102 275.126 71.7461C276.355 73.482 276.97 75.929 276.97 79.087C276.97 82.7888 276.355 85.4867 275.126 87.1808C273.897 88.8539 272.189 89.6905 270.002 89.6905C267.752 89.6905 266.023 88.8435 264.815 87.1494Z" fill="#18A0FB"/>
</svg>
